<svg width="218" height="18" viewBox="0 0 218 18" fill="none" xmlns="http://www.w3.org/2000/svg">
<g clip-path="url(#clip0_15_7)">
<path d="M42.1882 17.1898H38.0913V0.346558H42.1882V17.1898Z" fill="black"/>
<path d="M72.8706 17.1898L52.5987 5.67199H52.5776V17.1898H48.4807V0.346558H51.6931L71.9652 11.8644H71.987V0.346558H76.0834V17.1898H72.8706Z" fill="black"/>
<path d="M79.4808 4.18585V0.346558H104.492V4.18585H94.0343V17.1898H89.938V4.18585H79.4808Z" fill="black"/>
<path d="M111.899 12.4342C113.279 13.2514 116.211 13.6971 119.553 13.6971C122.895 13.6971 125.806 13.2514 127.208 12.4342C128.436 11.7154 129.104 10.6009 129.104 8.76818C129.104 6.98473 128.458 5.87016 127.229 5.15207C125.849 4.33486 122.96 3.83927 119.553 3.83927C116.146 3.83927 113.257 4.33486 111.878 5.15207C110.649 5.87016 110.002 6.98473 110.002 8.76818C110.002 10.6009 110.67 11.7154 111.899 12.4342ZM108.859 2.37804C110.929 0.990375 114.551 -3.05176e-05 119.553 -3.05176e-05C124.555 -3.05176e-05 128.178 0.990375 130.247 2.37804C132.145 3.64102 133.244 5.49859 133.244 8.76818C133.244 12.087 132.188 13.8704 130.247 15.1589C128.178 16.5459 124.577 17.5365 119.553 17.5365C114.53 17.5365 110.929 16.5459 108.859 15.1589C106.897 13.8704 105.862 12.087 105.862 8.76818C105.862 5.49859 106.962 3.64102 108.859 2.37804Z" fill="black"/>
<path d="M140.917 0.173203V9.51128C140.917 12.0627 144.086 13.5239 149.476 13.5239C154.867 13.5239 158.036 12.0627 158.036 9.51128V0.173203H162.133V10.2543C162.133 13.747 157.972 17.3632 149.476 17.3632C140.981 17.3632 136.82 13.747 136.82 10.2543V0.173203H140.917Z" fill="black"/>
<path d="M189.565 4.85471C186.348 4.21083 182.099 3.74015 178.78 3.69085C174.328 3.69085 172.144 4.35911 171.01 5.37456C169.998 6.29155 169.594 7.52962 169.594 9.06557C169.594 10.6009 170.161 12.0377 171.294 12.7315C172.649 13.5487 174.814 13.8705 178.801 13.8705C181.674 13.8705 184.75 13.4247 186.671 12.9292V10.5266L179.032 10.5638V7.49245L190.496 7.45541V15.5547C188.169 16.4219 183.434 17.5365 178.801 17.5365C173.58 17.5365 170.727 16.9418 168.663 15.5796C166.862 14.391 165.709 12.1619 165.709 9.06557C165.709 6.01923 166.801 3.93838 168.501 2.60067C170.424 1.08963 173.863 -3.05176e-05 178.801 -3.05176e-05C183.596 -3.05176e-05 187.866 0.792923 190.051 1.36194L189.565 4.85471Z" fill="black"/>
<path d="M198.272 10.2294V13.7713H218V17.1898H194.175V0.346558H217.935V3.76512H198.272V7.059H217.008V10.2294H198.272Z" fill="black"/>
<path d="M31.7987 0.60687V0.260348C30.4311 0.260348 29.0881 0.380161 27.7756 0.60687H27.7024V0.620578C23.3748 1.3823 19.3878 3.32976 16.0011 6.16784C12.5708 3.23617 8.5112 1.22439 4.09634 0.447382V0.433543H4.02313C2.71066 0.206834 1.36766 0.0870209 0 0.0870209V0.433543V17.2762H4.09634V5.2212C7.27316 5.88788 10.2209 7.31443 12.7924 9.33151C10.7439 11.6926 9.0235 14.4298 7.72319 17.4495H12.4072C13.4087 15.5793 14.6093 13.8642 15.9748 12.3435C17.2773 13.8213 18.4275 15.476 19.3916 17.2762H24.0756C22.8132 14.3444 21.1555 11.6782 19.1855 9.36445C21.7144 7.42107 24.5993 6.04565 27.7024 5.39452V17.4495H31.7987V0.60687Z" fill="black"/>
</g>
<defs>
<clipPath id="clip0_15_7">
<rect width="218" height="18" fill="white"/>
</clipPath>
</defs>
</svg>
