<svg width="200" height="51" viewBox="0 0 200 51" fill="none" xmlns="http://www.w3.org/2000/svg">
<path d="M72.6532 41.4061L60.0337 6.66746H64.9735L71.0533 23.9868C72.8532 29.0866 74.6531 34.2264 75.3931 37.4063H75.4931C76.2331 34.5664 78.193 29.1666 80.0329 24.1268L86.4126 6.64746H91.1525L78.093 41.4061H72.6532Z" fill="#231942"/>
<path d="M109.252 35.8663C109.252 38.2062 109.452 40.6661 109.592 41.4061H105.392C105.192 40.8661 105.052 39.6661 104.992 38.1062C104.092 39.7461 102.052 42.006 97.1522 42.006C91.1725 42.006 88.6125 38.1062 88.6125 34.2663C88.6125 28.6266 93.0524 26.0267 100.592 26.0267H104.892V23.8867C104.892 21.6468 104.192 18.9469 99.4521 18.9469C95.2523 18.9469 94.5123 21.0469 94.0523 22.9868H89.8125C90.1525 19.4869 92.3124 15.5071 99.5921 15.5071C105.772 15.5071 109.232 18.047 109.232 23.7868V35.8663H109.252ZM104.972 29.0865H100.872C95.8323 29.0865 93.1324 30.4865 93.1324 34.0264C93.1324 36.6662 94.9323 38.5662 98.0722 38.5662C104.152 38.5662 104.952 34.4663 104.952 29.8865V29.0865H104.972Z" fill="#231942"/>
<path d="M134.311 34.0265C134.311 36.5264 134.351 39.9262 134.351 41.4062H130.111C130.011 40.7662 129.971 39.2063 129.911 37.6063C128.671 40.4062 126.271 42.0061 122.271 42.0061C117.971 42.0061 113.892 39.8662 113.892 32.7265V16.1072H118.231V31.8265C118.231 35.1264 119.271 38.2063 123.471 38.2063C128.111 38.2063 129.911 35.6064 129.911 29.2666V16.0872H134.311V34.0265Z" fill="#231942"/>
<path d="M139.25 41.4061V4.76758H143.65V41.4061H139.25Z" fill="#231942"/>
<path d="M148.05 16.1071H152.45V8.62744H156.79V16.1071H162.39V19.647H156.79V34.4664C156.79 36.9663 157.39 38.2063 159.69 38.2063C160.29 38.2063 161.19 38.1663 161.89 38.0063V41.3062C160.85 41.7061 159.35 41.7461 158.09 41.7461C154.15 41.7461 152.45 39.7062 152.45 35.5064V19.627H148.05V16.1071Z" fill="#231942"/>
<path d="M167.01 10.2274V4.7876H171.41V10.2274H167.01ZM167.01 16.1072H171.41V41.4062H167.01V16.1072Z" fill="#231942"/>
<path d="M182.469 28.1867C184.569 25.6868 190.149 19.847 193.549 16.1072H198.789L189.249 25.9468L199.888 41.4262H194.749L186.269 28.8067L182.469 32.4465V41.4262H178.069V4.7876H182.469V28.1867Z" fill="#231942"/>
<path d="M16.4472 23.9668L0.0478437 30.7265C0.00784529 30.7465 -0.0121533 30.7865 0.0078459 30.8265L0.307834 31.8665C0.587823 32.8664 0.927809 33.8664 1.32779 34.8264C1.72778 35.7863 2.18776 36.7263 2.68774 37.6263L3.22772 38.5662C3.24772 38.5862 3.26772 38.6062 3.28772 38.6062H3.30772L19.6871 31.8465C19.7071 31.8465 19.7271 31.8265 19.7271 31.8065C19.7271 31.7865 19.7271 31.7665 19.7271 31.7465L16.5272 24.0068C16.5272 23.9668 16.4872 23.9668 16.4472 23.9668Z" fill="#231942"/>
<path d="M31.9266 30.5266C31.9066 30.4866 31.8666 30.4666 31.8266 30.4866L24.0869 33.6865C24.0669 33.6865 24.0469 33.7065 24.0469 33.7265C24.0469 33.7465 24.0469 33.7665 24.0469 33.7865L30.7466 49.9658C30.7666 49.9858 30.7866 50.0058 30.8266 50.0058H30.8466L31.8866 49.7059C32.8865 49.4259 33.8865 49.0859 34.8465 48.6859C35.8064 48.2859 36.7464 47.8259 37.6463 47.3259L38.5863 46.786C38.6263 46.766 38.6263 46.726 38.6263 46.686L31.9266 30.5266Z" fill="#231942"/>
<path d="M47.3461 12.3874L46.8061 11.4474C46.7861 11.4074 46.7461 11.4074 46.7061 11.4074L27.9868 19.1671C27.6068 19.3271 27.1869 19.1471 27.0469 18.7671L19.2872 0.0478462C19.2672 0.0078478 19.2272 -0.0121539 19.1872 0.00784536L18.1472 0.307834C17.1472 0.587823 16.1473 0.92781 15.1873 1.32779C14.2274 1.72778 13.2874 2.18776 12.3874 2.68774L11.4475 3.22772C11.4075 3.24772 11.4075 3.28772 11.4075 3.32772L19.1672 22.047C20.5871 25.4868 23.907 27.7268 27.6468 27.7468C27.7068 27.7468 27.7468 27.7468 27.8068 27.7468C28.9868 27.7268 30.1467 27.5068 31.2667 27.0468L49.986 19.2871C50.026 19.2671 50.046 19.2271 50.026 19.1871L49.726 18.1471C49.446 17.1472 49.106 16.1472 48.706 15.1872C48.326 14.2273 47.866 13.2873 47.3461 12.3874Z" fill="#231942"/>
</svg>
